<svg width="1024" height="1024" viewBox="0 0 1024 1024" fill="none" xmlns="http://www.w3.org/2000/svg">
	<g clip-path="url(#clip0_28_2)">
		<mask id="mask0_28_2" style="mask-type:luminance" maskUnits="userSpaceOnUse" x="-2076" y="-1715" width="5176" height="5176">
			<path d="M-2075.2 -1714.32H3099.2V3460.08H-2075.2V-1714.32Z" fill="white"/>
		</mask>
		<g mask="url(#mask0_28_2)">
			<path d="M512.002 0.000244141C229.684 0.000244141 -0.000244141 229.685 -0.000244141 512.003C-0.000244141 794.321 229.684 1024 512.002 1024C794.32 1024 1024 794.321 1024 512.003C1024 229.685 794.32 0.000244141 512.002 0.000244141ZM512.002 97.5255C740.909 97.5255 926.475 283.091 926.475 512.003C926.475 740.914 740.909 926.48 512.002 926.48C283.091 926.48 97.525 740.914 97.525 512.003C97.525 283.091 283.091 97.5255 512.002 97.5255Z" fill="#0075DA"/>
			<path d="M767.999 525.485L698.923 594.562L512.003 407.641L325.083 594.562L256.002 525.485L123.888 657.599C182.843 814.665 334.34 926.476 512.003 926.476C689.666 926.476 841.163 814.665 900.113 657.599L767.999 525.485Z" fill="#0075DA"/>
		</g>
	</g>
	<defs>
		<clipPath id="clip0_28_2">
			<rect width="1024" height="1024" fill="white"/>
		</clipPath>
	</defs>
</svg>
